<?xml version="1.0" encoding="utf-8"?>
<!-- Generator: Adobe Illustrator 24.0.1, SVG Export Plug-In . SVG Version: 6.00 Build 0)  -->
<svg version="1.1" id="Layer_1" xmlns="http://www.w3.org/2000/svg" xmlns:xlink="http://www.w3.org/1999/xlink" x="0px" y="0px"
	 viewBox="0 0 801.8 980" style="enable-background:new 0 0 801.8 980;" xml:space="preserve">
<path d="M579.1,0h-66.8H89.1C40.1,0,0,40.1,0,89.1v801.8c0,49,40.1,89.1,89.1,89.1h623.6c49,0,89.1-40.1,89.1-89.1V289.5V245
	L579.1,0z M757.3,890.9c0,24.5-20,44.5-44.5,44.5H89.1c-24.5,0-44.5-20-44.5-44.5V89.1c0-24.5,20-44.5,44.5-44.5H490v222.7
	c0,24.5,20,44.5,44.5,44.5h222.7L757.3,890.9L757.3,890.9L757.3,890.9z M534.5,267.3V44.5h22.3l200.5,222.7L534.5,267.3L534.5,267.3
	z"/>
<path d="M401,852.5"/>
<g>
	<path d="M589.9,496.4l-71.7-71.7c-2.7-2.7-6.3-4.2-10.1-4.2H235.6c-23.7,0-43,19.3-43,43v315.6c0,23.7,19.3,43,43,43h315.6
		c23.7,0,43-19.3,43-43V506.6C594.2,502.7,592.6,499.1,589.9,496.4z M307.3,449.2H422v71.2c0,7.9,6.4,14.3,14.3,14.3
		s14.3-6.4,14.3-14.3v-71.2h28.7v114.8H307.3V449.2z M508.1,793.4H278.6v-86.1h229.5V793.4z M565.5,779.1c0,7.9-6.4,14.3-14.3,14.3
		h-14.3v-87c0-15.3-12.5-27.8-27.8-27.8H277.7c-15.3,0-27.8,12.5-27.8,27.8v87h-14.3c-7.9,0-14.3-6.4-14.3-14.3V463.5
		c0-7.9,6.4-14.3,14.3-14.3h43v115.7c0,15.3,12.5,27.8,27.8,27.8h173.9c15.3,0,27.8-12.5,27.8-27.8V455.1l57.4,57.4L565.5,779.1
		L565.5,779.1z"/>
</g>
</svg>
