<?xml version="1.0" encoding="utf-8"?>
<!-- Generator: Adobe Illustrator 24.0.1, SVG Export Plug-In . SVG Version: 6.00 Build 0)  -->
<svg version="1.1" id="Layer_1" xmlns="http://www.w3.org/2000/svg" xmlns:xlink="http://www.w3.org/1999/xlink" x="0px" y="0px"
	 viewBox="0 0 492 492" style="enable-background:new 0 0 492 492;" xml:space="preserve">
<style type="text/css">
	.st0{fill:#55C2FF;stroke:#55C2FF;stroke-width:3;stroke-miterlimit:10;}
</style>
<path class="st0" d="M155.8,131.5c-2.5,0-4.5,2-4.5,4.5c0,2.5,2,4.5,4.5,4.5h112.7c2.5,0,4.5-2,4.5-4.5c0-2.5-2-4.5-4.5-4.5H155.8z"
	/>
<path class="st0" d="M155.8,174.5c-2.5,0-4.5,2-4.5,4.5c0,2.5,2,4.5,4.5,4.5h131.3c2.5,0,4.5-2,4.5-4.5c0-2.5-2-4.5-4.5-4.5H155.8z"
	/>
<path class="st0" d="M155.8,217.5c-2.5,0-4.5,2-4.5,4.5c0,2.5,2,4.5,4.5,4.5h91.7h55.8c2.5,0,4.5-2,4.5-4.5c0-2.5-2-4.5-4.5-4.5
	h-55.8H155.8z"/>
<path class="st0" d="M135.3,102.7h178.8h2.2l1.4,1.7l48.8,61.3l1,2.8l0,212.1h0c0,2.8-1.1,5.3-3,7.2l0,0c-1.8,1.8-4.4,3-7.1,3h-222
	c-2.8,0-5.3-1.1-7.1-3l0,0c-1.8-1.8-3-4.4-3-7.2V112.9c0-2.8,1.1-5.3,3-7.2l0,0C129.9,103.9,132.5,102.7,135.3,102.7L135.3,102.7z
	 M311.9,111.7H135.3c-0.3,0-0.6,0.1-0.8,0.3v0c-0.2,0.2-0.3,0.5-0.3,0.8v267.7c0,0.3,0.1,0.6,0.3,0.8v0c0.2,0.2,0.5,0.3,0.8,0.3h222
	c0.3,0,0.6-0.1,0.8-0.3v0c0.2-0.2,0.3-0.5,0.3-0.8h0l0-210.5L311.9,111.7z"/>
<path class="st0" d="M155.8,261c-2.5,0-4.5,2-4.5,4.5c0,2.5,2,4.5,4.5,4.5h105.8H326c2.5,0,4.5-2,4.5-4.5c0-2.5-2-4.5-4.5-4.5h-64.4
	H155.8z"/>
<path class="st0" d="M246.3,363.5V356c-3.8-0.5-6.8-1.3-9.2-2.5c-2.4-1.2-4.4-3.2-6.1-5.9c-1.7-2.7-2.7-6-3-9.9l7.6-1.4
	c0.6,4,1.6,7,3.1,8.9c2.1,2.7,4.7,4.2,7.6,4.5v-24c-3.1-0.6-6.3-1.8-9.5-3.6c-2.4-1.3-4.2-3.2-5.5-5.6c-1.3-2.4-1.9-5.1-1.9-8.1
	c0-5.4,1.9-9.7,5.7-13c2.5-2.2,6.3-3.6,11.3-4.1v-3.6h4.4v3.6c4.4,0.4,7.9,1.7,10.4,3.8c3.3,2.7,5.3,6.5,5.9,11.3l-7.8,1.2
	c-0.4-3-1.4-5.2-2.8-6.8c-1.4-1.6-3.3-2.6-5.8-3.1v21.7c3.8,1,6.3,1.7,7.5,2.2c2.3,1,4.3,2.3,5.7,3.8c1.5,1.5,2.6,3.2,3.4,5.3
	c0.8,2,1.2,4.2,1.2,6.6c0,5.2-1.7,9.6-5,13.1c-3.3,3.5-7.6,5.4-12.9,5.6v7.6H246.3L246.3,363.5z M246.3,297.5
	c-2.9,0.4-5.2,1.6-6.9,3.5c-1.7,1.9-2.5,4.1-2.5,6.7c0,2.6,0.7,4.7,2.2,6.4c1.4,1.7,3.9,3.1,7.3,4.1V297.5L246.3,297.5z
	 M250.7,349.6c2.9-0.4,5.3-1.6,7.3-3.8c1.9-2.2,2.9-4.9,2.9-8.1c0-2.7-0.7-4.9-2-6.6c-1.4-1.7-4.1-3.1-8.1-4.5V349.6z"/>
</svg>
