<?xml version="1.0" encoding="utf-8"?>
<!-- Generator: Adobe Illustrator 24.0.1, SVG Export Plug-In . SVG Version: 6.00 Build 0)  -->
<svg version="1.1" id="Layer_1" xmlns="http://www.w3.org/2000/svg" xmlns:xlink="http://www.w3.org/1999/xlink" x="0px" y="0px"
	 viewBox="0 0 1349.4 1359.8" style="enable-background:new 0 0 1349.4 1359.8;" xml:space="preserve">
<style type="text/css">
	.st0{stroke:#000000;stroke-width:35;stroke-miterlimit:10;}
</style>
<g id="Layer_1_1_">
	<g>
		<path d="M525.5,534.5c-22.3,0-40.1,2.2-51.2,4.5v173.7h37.9v-62.4c4.5,0,8.9,0,13.4,0c22.3,0,40.1-6.7,53.5-17.8
			c8.9-8.9,15.6-24.5,15.6-42.3s-6.7-31.2-17.8-40.1C565.6,539,550,534.5,525.5,534.5z M525.5,619.2c-4.5,0-8.9,0-13.4,0V568
			c2.2,0,8.9-2.2,15.6-2.2c17.8,0,29,8.9,29,26.7C556.7,608,545.5,619.2,525.5,619.2z M659.1,534.5c-17.8,0-37.9,2.2-51.2,4.5v173.7
			c8.9,2.2,22.3,2.2,42.3,2.2c33.4,0,57.9-6.7,75.7-22.3c15.6-13.4,26.7-37.9,26.7-71.3c0-31.2-11.1-53.5-29-66.8
			C710.3,541.2,690.3,534.5,659.1,534.5z M659.1,683.8c-4.5,0-8.9,0-13.4,0V568c2.2,0,8.9-2.2,17.8-2.2c31.2,0,51.2,20,51.2,55.7
			C714.8,663.7,692.5,683.8,659.1,683.8z M788.3,712.7h37.9v-71.3h60.1V608h-60.1v-40h62.4v-33.4H788.3V712.7z M852.9,0h-66.8H362.9
			c-49,0-89.1,40.1-89.1,89.1v801.8c0,49,40.1,89.1,89.1,89.1h623.6c49,0,89.1-40.1,89.1-89.1V289.5V245L852.9,0z M1031.1,890.9
			c0,24.5-20,44.5-44.5,44.5H362.9c-24.5,0-44.5-20-44.5-44.5V89.1c0-24.5,20-44.5,44.5-44.5h400.9v222.7c0,24.5,20,44.5,44.5,44.5
			H1031L1031.1,890.9L1031.1,890.9L1031.1,890.9z M808.3,267.3V44.5h22.3l200.5,222.7L808.3,267.3L808.3,267.3z"/>
	</g>
	<path d="M674.8,852.5"/>
</g>
<g id="Arrow">
	<g>
		<path class="st0" d="M863.8,1082.5H745.6V834.1H603.8v248.4H485.6l189.1,248.4L863.8,1082.5z"/>
	</g>
</g>
</svg>
