<?xml version="1.0" encoding="utf-8"?>
<!-- Generator: Adobe Illustrator 23.0.3, SVG Export Plug-In . SVG Version: 6.00 Build 0)  -->
<svg version="1.1" id="Layer_1" xmlns="http://www.w3.org/2000/svg" xmlns:xlink="http://www.w3.org/1999/xlink" x="0px" y="0px"
	 viewBox="0 0 801.8 980" style="enable-background:new 0 0 801.8 980;" xml:space="preserve">
<style type="text/css">
	.st0{display:none;}
	.st1{display:inline;}
</style>
<path d="M579.1,0h-66.8H89.1C40.1,0,0,40.1,0,89.1v801.8c0,49,40.1,89.1,89.1,89.1h623.6c49,0,89.1-40.1,89.1-89.1V289.5V245
	L579.1,0z M757.3,890.9c0,24.5-20,44.5-44.5,44.5H89.1c-24.5,0-44.5-20-44.5-44.5V89.1c0-24.5,20-44.5,44.5-44.5H490v222.7
	c0,24.5,20,44.5,44.5,44.5h222.7L757.3,890.9L757.3,890.9L757.3,890.9z M534.5,267.3V44.5h22.3l200.5,222.7L534.5,267.3L534.5,267.3
	z"/>
<path d="M401,852.5"/>
<g class="st0">
	<path class="st1" d="M267.5,536.7c2.5-3.5,5-7,7.7-10.3c0.1-0.1,0.2-0.3,0.4-0.4c9.3-11.2,20-21,32-29.1c0.2-0.1,0.4-0.2,0.6-0.4
		c3.7-2.5,7.6-4.9,11.5-7c0.9-0.4,1.7-0.9,2.6-1.3c29.5-15.5,64.2-21.6,99.4-14.8l-7.6,39.3L520.6,468l-82.3-81.2l-7.6,39.3
		c-41.3-8-82.2-2.5-118.1,13.3c-0.5,0.2-1,0.3-1.5,0.5c-3.7,1.6-7.2,3.6-10.7,5.4c-1.3,0.7-2.7,1.3-4,2c-5.1,2.7-9.9,5.8-14.6,8.9
		c-0.5,0.3-1,0.6-1.3,0.9c-15.7,10.6-29.7,23.3-41.6,37.8c-0.3,0.4-0.7,0.7-1,1.2c-3.4,4.2-6.6,8.5-9.7,12.9
		c-0.7,1.1-1.5,2.2-2.3,3.3c-2.5,3.8-4.9,7.8-7.1,11.8c-1.1,1.9-2.2,3.8-3.2,5.7c-1.8,3.5-3.5,7.2-5.2,10.9
		c-1.1,2.5-2.2,4.9-3.2,7.4c-0.4,1.1-1,2-1.3,3c-1.3,3.5-2.4,7.1-3.6,10.7c-0.4,1.3-0.9,2.6-1.3,3.9c-1.9,6.5-3.6,12.9-4.9,19.4
		c-7.7,40-3,81.3,14,119.2c5.4,12.1,19.6,17.5,31.7,12.1c12.1-5.4,17.6-19.6,12.1-31.7c-13.2-29.5-16.5-61.7-10.1-92.7
		c0.9-4.1,1.8-8.1,2.9-12.1c0.5-1.6,1.1-3.2,1.6-4.8c1.1-3.1,2.1-6.2,3.3-9.2c0.7-1.8,1.6-3.6,2.4-5.4c1.3-2.9,2.6-5.8,4-8.6
		c0.7-1.3,1.5-2.6,2.2-3.9c1.8-3.2,3.6-6.4,5.7-9.4C266.5,538.1,267,537.4,267.5,536.7z M575.6,541c-5.4-12.1-19.6-17.6-31.7-12.1
		c-12.1,5.4-17.6,19.6-12.1,31.7c13.1,29.3,16.5,61.1,10.3,91.9c-0.9,4.4-2,8.8-3.2,13c-0.4,1.3-0.9,2.6-1.3,3.9
		c-1.1,3.5-2.3,6.9-3.7,10.2c-0.6,1.5-1.3,2.9-1.9,4.3c-1.4,3.3-2.9,6.5-4.6,9.6c-0.5,1-1.1,2-1.7,2.9c-2,3.6-4,7-6.3,10.4
		c-0.2,0.3-0.5,0.7-0.7,1c-13.7,20.2-32,36.6-53.1,48.2c-0.1,0-0.3,0.1-0.4,0.2c-29.8,16.2-65.3,22.6-101.2,15.7l7.6-39.3
		l-106.5,44.7l82.3,81.2l7.6-39.3c41.3,7.9,82,2.5,117.8-13.2c0.6-0.2,1.2-0.3,1.8-0.6c4.4-2,8.6-4.2,12.8-6.5
		c0.5-0.2,1-0.5,1.5-0.8c28.1-15.3,51.6-36.7,69.3-62.8c0.5-0.7,1-1.4,1.5-2.1c2.7-4.2,5.3-8.5,7.7-12.9c0.9-1.6,1.8-3.1,2.6-4.7
		c2-3.8,3.8-7.7,5.6-11.7c1-2.2,2-4.4,2.9-6.6c0.4-1.1,1-2.1,1.4-3.2c1.1-3,2-6.1,3-9.1c0.7-2.1,1.4-4.1,2.1-6.3
		c1.5-5.1,2.7-10.3,3.8-15.5c0.2-1,0.5-1.8,0.7-2.8c0-0.1,0-0.3,0-0.5C597.1,620.1,592.5,578.9,575.6,541z"/>
	<path class="st1" d="M285.5,697.3c-2.7,0-5.3-1.4-6.7-3.9c-16.7-30.2-20.6-65.1-11-98.2c9.6-33.1,31.5-60.6,61.7-77.3
		c22.7-12.5,48.2-17.9,73.9-15.5c4.2,0.4,7.3,4.1,6.9,8.3c-0.4,4.2-4.1,7.3-8.3,6.9c-22.6-2-45.1,2.7-65.1,13.7
		c-26.6,14.7-45.9,38.8-54.3,68.1s-5,59.9,9.7,86.5c2.1,3.7,0.7,8.4-3,10.4C288,697,286.7,697.3,285.5,697.3z"/>
	<path class="st1" d="M390.3,751.4c-2,0-3.9,0-6-0.1c-4.2-0.2-7.5-3.8-7.3-8s3.8-7.5,8-7.3c22.7,1.1,45-4.7,64.4-16.6
		c25.9-15.8,44.2-40.9,51.3-70.4c7.1-29.6,2.4-60.1-13.5-86.1c-2.2-3.6-1.1-8.3,2.6-10.5c3.6-2.2,8.3-1.1,10.5,2.6
		c18,29.5,23.4,64.1,15.4,97.7c-8.1,33.6-28.8,61.9-58.2,79.9C437.1,744.9,414,751.4,390.3,751.4z"/>
</g>
<g>
	<g>
		<g>
			<path d="M201.4,368.7c-19.4,0.9-27.5,4.3-38.8,16.2c-7,7.3-9.8,12.4-12.6,22c-1.9,6-1.9,22-2.1,224.1c0,214.5,0,217.5,2.1,222.4
				c3,6.8,7.3,11.7,13.4,15.4l5.1,3h196.1c191.9,0,196.3,0,200.6-2.1c5.3-2.8,11.1-8.3,13.9-13.7c1.1-2.1,6.8-21.6,12.6-42.9
				c6-21.3,21.6-79,35-128.3c20.1-73.4,24.5-90.5,24.5-96.5c-0.2-12-6-21.3-17.3-27.3c-5.5-3-5.5-3-33.5-3.4l-28-0.4l0-60.2
				c-0.4-55.1-0.4-60.4-2.3-63.6c-3.4-6.2-8.7-11.5-14.5-14.5l-5.5-3l-33.1-0.4c-19-0.2-32.9,0-32.7,0.6c0.2,0.4,6.2,7.5,13.2,15.6
				l12.8,14.7h15.8H542v63.2v63.2h-55.5H431v-39.5v-39.3l39.3-0.2l39.3-0.4l-54.4-62.1c-29.9-34.1-54.6-62.1-55.3-62.1
				c-0.4,0-25.4,28-55.3,62.1l-54.4,62.1l39.1,0.6l39.1,0.6l0.4,39.1l0.2,39.1h-56.3c-52.9,0-56.6,0.2-61,2.1
				c-2.6,1.3-5.3,3.4-6.6,4.9c-1.1,1.7-16.2,60.2-33.7,130.2l-32,127.2L179,626.7c-0.2-176.7,0.2-211.1,1.5-214.1
				c1.9-4.3,7.9-10.2,12.2-11.7c1.9-0.9,20.3-1.3,51.9-1.3h48.7l10,9c5.5,4.9,10.5,9,10.9,8.7c1.1,0,19.6-21.8,19.6-23
				c0-1.9-22.4-20.5-28-23.3l-5.8-2.8l-42.5-0.2C234.3,368.2,209.1,368.4,201.4,368.7z M619.9,591.2c-0.9,3.8-67,245.2-67.7,247.8
				c-0.6,1.9-10,1.9-179.1,1.9c-169.4,0-178.4-0.2-178-1.9c0.4-1.1,14.1-55.9,30.5-122.1s30.5-122.1,31.2-124.4l1.1-4.1h181.2h181.4
				L619.9,591.2z"/>
		</g>
	</g>
</g>
</svg>
